<svg width="73" height="72" viewBox="0 0 73 72" fill="none" xmlns="http://www.w3.org/2000/svg">
<rect width="73" height="72" rx="10" fill="#17C887" fill-opacity="0.2"/>
<path d="M50.0781 33.4609C50.7188 34.5859 51.1953 35.7578 51.5078 36.9766C51.8203 38.1953 51.9844 39.4531 52 40.75V43.1641L37 50.6875L22 43.1641C22 42.2266 22.0078 41.3516 22.0234 40.5391C22.0391 39.7266 22.1094 38.9375 22.2344 38.1719C22.3594 37.4062 22.5469 36.6406 22.7969 35.875C23.0469 35.1094 23.4219 34.3047 23.9219 33.4609L19 31V44.7578C19.4531 44.9141 19.8594 45.1328 20.2187 45.4141C20.5781 45.6953 20.8984 46.0234 21.1797 46.3984C21.4609 46.7734 21.6641 47.1797 21.7891 47.6172C21.9141 48.0547 21.9844 48.5156 22 49V56.5H13V49C13 48.5312 13.0703 48.0781 13.2109 47.6406C13.3516 47.2031 13.5547 46.7891 13.8203 46.3984C14.0859 46.0078 14.3984 45.6797 14.7578 45.4141C15.1172 45.1484 15.5312 44.9297 16 44.7578V29.5L13 28L37 16L61 28L50.0781 33.4609ZM19 49C19 48.5938 18.8516 48.2422 18.5547 47.9453C18.2578 47.6484 17.9062 47.5 17.5 47.5C17.0938 47.5 16.7422 47.6484 16.4453 47.9453C16.1484 48.2422 16 48.5938 16 49V53.5H19V49ZM19.7031 28L37 36.6484L54.2969 28L37 19.3516L19.7031 28ZM49 41.3125C49 40.1094 48.8828 38.9922 48.6484 37.9609C48.4141 36.9297 48 35.875 47.4062 34.7969L37 40L26.5937 34.7969C26.0781 35.7031 25.6875 36.6562 25.4219 37.6562C25.1562 38.6562 25.0156 39.6875 25 40.75V41.3125L37 47.3125L49 41.3125Z" fill="#17C887"/>
</svg>
