<svg width="340" height="274" viewBox="0 0 340 274" fill="none" xmlns="http://www.w3.org/2000/svg">
<g clip-path="url(#clip0_33_605)">
<path d="M193.692 242.401C191.341 239.111 188.158 236.703 184.157 235.802C180.668 235.016 177.081 235.15 173.534 235.178L128.689 235.523C124.849 235.553 121.166 238.879 121.345 242.864C121.522 246.817 124.572 250.237 128.689 250.206C141.826 250.104 154.962 250.003 168.098 249.902C171.195 249.878 174.294 249.822 177.391 249.832C178.087 249.835 178.779 249.871 179.474 249.879C179.642 249.881 179.764 249.88 179.85 249.876C179.871 249.882 179.889 249.888 179.917 249.896C180.28 249.996 180.652 250.064 181.016 250.159C180.889 250.162 181.253 250.39 181.436 250.467C181.461 250.516 181.514 250.604 181.604 250.74C181.729 250.974 182.098 251.684 182.114 251.662C182.669 253.065 183.127 254.505 183.485 255.972C184.338 259.205 184.526 259.881 184.649 262.914C184.804 266.747 187.916 270.438 191.993 270.256C195.84 270.083 199.504 267.024 199.338 262.914C199.057 255.989 197.841 248.209 193.692 242.401Z" fill="#E6E6E6"/>
<path d="M131.325 258.968C130.483 253.866 129.657 248.76 128.798 243.661C127.927 238.488 126.147 233.752 122.12 230.356C121.044 229.449 119.928 228.603 118.808 227.758C118.414 227.462 118.02 227.164 117.631 226.861C117.608 226.843 117.593 226.831 117.573 226.816C117.53 226.779 117.479 226.735 117.41 226.677C115.731 225.257 114.109 223.774 112.564 222.197C111.192 220.797 109.88 219.337 108.628 217.818C108.315 217.438 108.006 217.055 107.701 216.669C107.649 216.603 107.366 216.238 107.18 216C107.007 215.761 106.691 215.331 106.638 215.256C106.282 214.753 105.932 214.245 105.589 213.732C103.249 210.229 101.224 206.526 99.5352 202.667C99.3678 202.284 99.2043 201.899 99.0448 201.512C99.002 201.394 98.9466 201.242 98.8731 201.04C98.5328 200.105 98.1932 199.171 97.8822 198.224C97.2212 196.214 96.6529 194.175 96.1773 192.105C95.9422 191.084 95.7305 190.057 95.5423 189.024C95.4453 188.494 95.3545 187.962 95.27 187.429C95.2561 187.34 95.1736 186.765 95.125 186.44C95.0891 186.114 95.0223 185.536 95.0134 185.446C94.9596 184.909 94.9118 184.371 94.8702 183.833C94.7762 182.622 94.7127 181.408 94.6797 180.193C94.6232 178.033 94.6619 175.873 94.7958 173.713C94.872 172.5 94.9805 171.29 95.114 170.082C95.1221 170.007 95.1284 169.948 95.1342 169.895C95.1423 169.841 95.1517 169.78 95.1629 169.704C95.2617 169.036 95.3657 168.369 95.4821 167.705C95.9226 165.182 96.4956 162.683 97.1985 160.22C97.5314 159.055 97.8929 157.899 98.2832 156.753C98.4571 156.244 98.6366 155.738 98.8216 155.233C98.8094 155.265 99.3642 153.849 99.3716 153.801C101.573 148.603 105.173 143.865 105.178 137.96C105.181 133.962 101.797 130.132 97.8331 130.317C95.8567 130.391 93.9863 131.23 92.6162 132.655C91.2461 134.081 90.4832 135.983 90.4884 137.96C90.4884 138.05 90.488 138.126 90.4878 138.201C90.4508 138.325 90.4199 138.429 90.3921 138.521C89.9628 139.453 89.437 140.339 88.9659 141.248C87.6757 143.737 86.5745 146.307 85.5284 148.914C83.8159 153.161 82.5051 157.559 81.6131 162.05C79.6744 171.89 79.5239 181.999 81.1689 191.892C84.0166 209.242 93.4077 225.849 106.463 237.013C107.596 237.981 108.757 238.918 109.929 239.835C110.413 240.214 110.902 240.587 111.394 240.957C111.626 241.132 112.588 241.89 112.165 241.523C113.075 242.299 113.458 242.69 113.691 243.262C113.725 243.394 113.772 243.573 113.834 243.817C113.999 244.462 114.155 245.105 114.285 245.759C115.422 251.472 116.212 257.281 117.161 263.031C117.813 266.982 122.679 269.553 126.196 268.369C130.288 266.991 132.024 263.201 131.325 258.968Z" fill="#E6E6E6"/>
<path d="M194.435 273.786C191.35 273.794 188.388 272.578 186.199 270.406C184.01 268.234 182.772 265.283 182.757 262.2V253.826C173.985 254.807 143.948 254.58 135.338 253.197V261.865C135.315 264.946 134.074 267.892 131.887 270.063C129.699 272.233 126.742 273.451 123.66 273.451C120.578 273.451 117.621 272.233 115.433 270.063C113.245 267.892 112.005 264.946 111.982 261.865V244.847C100.32 238.371 90.5986 228.903 83.8203 217.418C77.042 205.933 73.4526 192.849 73.4224 179.515C73.4224 156.652 83.7889 135.323 101.864 120.999C113.616 111.654 127.895 106.034 142.867 104.861C144.899 104.701 146.943 104.621 148.944 104.621C155.991 104.621 187.787 105.709 195.765 108.003L213.956 89.9611C214.223 89.6922 214.565 89.5091 214.937 89.435C215.309 89.3609 215.694 89.3992 216.044 89.545C216.397 89.6853 216.699 89.9289 216.911 90.2439C217.123 90.5589 217.234 90.9305 217.231 91.31V94.1786L220.773 90.6722C221.04 90.4031 221.381 90.2197 221.753 90.1454C222.124 90.0712 222.51 90.1095 222.86 90.2555C223.213 90.3957 223.515 90.6393 223.727 90.9545C223.939 91.2696 224.051 91.6414 224.048 92.0211V124.077C233.175 132.302 240.132 142.651 244.302 154.206C248.472 165.761 249.725 178.166 247.951 190.321C246.178 202.477 241.431 214.007 234.133 223.89C226.835 233.773 217.211 241.705 206.113 246.981V262.2C206.098 265.283 204.86 268.234 202.67 270.406C200.481 272.578 197.519 273.794 194.435 273.786ZM183.675 252.785V262.2C183.698 265.037 184.842 267.75 186.857 269.748C188.873 271.747 191.596 272.868 194.435 272.868C197.273 272.868 199.997 271.747 202.012 269.748C204.028 267.75 205.171 265.037 205.195 262.2V246.402L205.457 246.277C217.909 240.371 228.481 231.13 235.997 219.582C245.575 204.845 249.558 187.168 247.226 169.75C244.893 152.332 236.4 136.324 223.282 124.623L223.129 124.486V92.0211C223.133 91.8238 223.075 91.6303 222.965 91.4666C222.855 91.3029 222.697 91.1768 222.513 91.1054C222.331 91.0273 222.128 91.0062 221.933 91.0449C221.738 91.0837 221.559 91.1804 221.42 91.3225L216.313 96.379V91.31C216.316 91.1127 216.259 90.9192 216.148 90.7555C216.038 90.5918 215.881 90.4657 215.697 90.3944C215.513 90.3163 215.311 90.2954 215.115 90.3345C214.92 90.3735 214.741 90.4706 214.602 90.613L196.021 109.041L195.757 108.958C188.341 106.638 156.045 105.538 148.944 105.538C146.967 105.538 144.947 105.618 142.939 105.776C128.149 106.935 114.044 112.486 102.434 121.718C84.5803 135.867 74.3404 156.933 74.3404 179.515C74.3709 192.731 77.9412 205.698 84.6803 217.068C91.4195 228.439 101.082 237.799 112.663 244.175L112.9 244.306V261.865C112.924 264.702 114.068 267.415 116.083 269.412C118.098 271.41 120.822 272.531 123.66 272.531C126.498 272.531 129.222 271.41 131.237 269.412C133.252 267.415 134.396 264.702 134.42 261.865V252.099L134.964 252.201C142.701 253.656 175.282 253.885 183.156 252.853L183.675 252.785Z" fill="#3F3D56"/>
<path d="M132.203 54.6543L81.3684 69.9241C79.7516 70.4117 78.3945 71.5209 77.5953 73.008C76.7961 74.4951 76.6202 76.2385 77.1063 77.8552C77.5923 79.4719 78.7005 80.8296 80.1874 81.63C81.6743 82.4305 83.4183 82.6083 85.0363 82.1243L129.522 68.7587L130.454 68.4788C130.642 63.6788 131.945 58.9884 134.259 54.7782C133.969 54.6476 133.658 54.5669 133.341 54.5396C132.958 54.5025 132.571 54.5415 132.203 54.6543Z" fill="#6C63FF"/>
<path d="M84.1572 85.3798C83.4823 85.3781 82.8251 85.1646 82.2784 84.7693C81.7316 84.3739 81.3229 83.8169 81.1101 83.1768L77.9314 73.5892C77.7986 73.1888 77.746 72.7662 77.7767 72.3455C77.8073 71.9248 77.9206 71.5143 78.11 71.1373C78.2994 70.7604 78.5612 70.4245 78.8805 70.1487C79.1999 69.8729 79.5704 69.6627 79.971 69.5301L121.345 55.8249C121.745 55.6922 122.168 55.6396 122.589 55.6702C123.01 55.7008 123.421 55.814 123.798 56.0032C124.175 56.1925 124.511 56.4541 124.787 56.7732C125.063 57.0923 125.273 57.4626 125.406 57.8629L128.585 67.4506C128.849 68.2392 128.796 69.0997 128.437 69.8498C128.078 70.6 127.44 71.1809 126.66 71.4696C126.622 71.4839 126.583 71.4974 126.544 71.5101L85.1711 85.2149C84.8442 85.3238 84.5018 85.3795 84.1572 85.3798Z" fill="#2F2E41"/>
<path d="M161.641 37.6273C153.29 37.6305 145.269 40.8814 139.274 46.6918C133.279 52.5022 129.782 60.4162 129.522 68.7587C129.513 69.0845 129.508 69.4149 129.508 69.7452C129.508 76.0975 131.393 82.3072 134.923 87.5889C138.454 92.8707 143.473 96.9873 149.344 99.4182C155.216 101.849 161.677 102.485 167.91 101.246C174.143 100.007 179.868 96.9477 184.362 92.456C188.856 87.9642 191.916 82.2413 193.156 76.0111C194.396 69.7808 193.76 63.323 191.328 57.4542C188.896 51.5854 184.777 46.5693 179.493 43.0402C174.209 39.511 167.996 37.6273 161.641 37.6273ZM161.641 100.945C153.365 100.937 145.43 97.6469 139.578 91.7976C133.726 85.9483 130.435 78.0174 130.426 69.7452C130.426 69.3185 130.435 68.8964 130.454 68.4788C130.702 62.3672 132.743 56.4634 136.321 51.5015C139.9 46.5397 144.859 42.7387 150.581 40.5713C156.304 38.4038 162.537 37.9655 168.507 39.3108C174.477 40.6561 179.919 43.7257 184.157 48.1379C188.396 52.5501 191.243 58.1102 192.345 64.1269C193.447 70.1436 192.756 76.3514 190.357 81.9784C187.957 87.6053 183.956 92.4033 178.851 95.7755C173.745 99.1478 167.76 100.946 161.641 100.945Z" fill="#3F3D56"/>
<path d="M188.724 69.7451C188.724 76.9247 185.871 83.8103 180.792 88.8871C175.713 93.9638 168.824 96.8159 161.641 96.8159C154.458 96.8159 147.569 93.9638 142.49 88.8871C137.411 83.8103 134.557 76.9247 134.557 69.7451C134.557 68.8871 134.599 68.0429 134.677 67.2078C135.329 60.2787 138.627 53.8671 143.885 49.3042C149.142 44.7413 155.956 42.3778 162.912 42.7043C169.867 43.0308 176.429 46.0223 181.236 51.0577C186.042 56.0931 188.724 62.7854 188.724 69.7451Z" fill="#E6E6E6"/>
<path d="M169.706 71.5438C169.05 70.6811 168.186 69.9978 167.195 69.5571C165.973 69.0423 164.711 68.628 163.422 68.3183V60.9495C165.404 61.2482 167.263 62.0953 168.788 63.395L170.285 60.2062C169.424 59.4398 168.436 58.8295 167.365 58.403C166.178 57.9226 164.932 57.6032 163.661 57.4532V53.7184H160.195V57.4899C158.857 57.6402 157.566 58.0735 156.408 58.7609C155.362 59.3797 154.481 60.2424 153.842 61.2753C153.231 62.2833 152.915 63.4418 152.928 64.6201C152.869 65.897 153.239 67.157 153.98 68.199C154.661 69.1011 155.562 69.8148 156.596 70.2729C157.837 70.8028 159.121 71.2279 160.434 71.5438V78.6052C158.095 78.4288 155.866 77.5401 154.048 76.0587L152.552 79.2521C153.568 80.0921 154.724 80.7474 155.967 81.1883C157.329 81.6755 158.752 81.9719 160.195 82.0693V85.772H163.661V82.0005C165.586 81.7902 167.391 80.9629 168.807 79.6421C169.43 79.0445 169.922 78.3241 170.253 77.5264C170.583 76.7287 170.744 75.8711 170.725 75.008C170.783 73.7718 170.424 72.552 169.706 71.5438ZM160.434 67.5382C159.589 67.2824 158.805 66.8613 158.125 66.2994C157.855 66.0598 157.642 65.7636 157.501 65.432C157.36 65.1004 157.294 64.7417 157.308 64.3815C157.283 63.5643 157.583 62.7706 158.143 62.1746C158.764 61.5493 159.565 61.1338 160.434 60.9862V67.5382ZM165.598 77.3021C165.012 77.9024 164.25 78.2995 163.422 78.4354V72.3605C164.213 72.5727 164.953 72.9426 165.598 73.4479C165.842 73.6565 166.036 73.9175 166.166 74.2114C166.295 74.5053 166.357 74.8246 166.346 75.1456C166.378 75.9331 166.111 76.7034 165.598 77.3021Z" fill="#6C63FF"/>
<path d="M85.6325 124.237C84.9229 124.236 84.2335 124.001 83.6712 123.568C83.1089 123.136 82.7051 122.53 82.5225 121.844L80.7919 115.297C80.5752 114.474 80.694 113.599 81.1222 112.863C81.5503 112.127 82.2528 111.592 83.0756 111.373L137.674 96.9524C138.498 96.7376 139.374 96.8576 140.109 97.2862C140.845 97.7149 141.381 98.4173 141.599 99.2398L143.066 104.787L142.791 104.808C128.788 105.897 115.39 110.971 104.182 119.432L104.103 119.47L86.4477 124.132C86.1817 124.202 85.9077 124.237 85.6325 124.237Z" fill="#2F2E41"/>
<path d="M76.5899 156.578C70.1852 155.633 64.0598 153.318 58.6313 149.791C55.9418 148.046 53.4521 146.01 51.2068 143.722C48.9906 141.462 46.8704 138.894 45.7727 135.885C44.7166 133.102 44.771 130.018 45.9248 127.274C47.0628 124.545 49.2367 122.38 51.9698 121.251C54.7193 120.155 58.0411 120.038 60.717 121.238C61.9921 121.797 63.0955 122.685 63.9139 123.81C64.2943 124.329 64.576 124.914 64.7449 125.535C64.9016 126.097 64.9159 126.69 64.7864 127.259C64.6295 127.828 64.3528 128.356 63.9748 128.809C63.5969 129.262 63.1264 129.629 62.595 129.885C61.4254 130.485 60.1582 130.871 58.8528 131.026C57.5399 131.205 55.6539 131.368 54.5984 130.314C54.3812 130.106 54.2103 129.854 54.0969 129.575C54.0176 129.362 53.9904 129.133 54.0178 128.906C54.0024 129.006 54.0814 128.69 54.0769 128.702C54.0602 128.749 53.988 128.863 54.0907 128.688C54.1228 128.63 54.1586 128.575 54.1977 128.521C54.1628 128.566 54.0862 128.642 54.223 128.513C54.3361 128.389 54.4814 128.299 54.6427 128.254C54.7063 128.235 54.7707 128.22 54.8344 128.203C54.9964 128.159 54.673 128.205 54.8387 128.2C54.9026 128.198 54.9673 128.2 55.031 128.197C55.1935 128.189 54.8707 128.152 55.0264 128.192C55.0869 128.207 55.1468 128.222 55.2064 128.24C55.3359 128.281 55.1147 128.145 55.2024 128.247C55.3053 128.366 55.0945 128.131 55.2114 128.246C55.2695 128.304 55.3243 128.364 55.3755 128.427C55.5782 128.627 55.8516 128.74 56.1364 128.74C56.4212 128.74 56.6946 128.627 56.8973 128.427C57.093 128.223 57.2023 127.95 57.2023 127.667C57.2023 127.384 57.093 127.111 56.8973 126.906C55.8362 125.592 53.7404 125.917 52.6671 127.028C51.2982 128.445 51.8403 130.691 53.1718 131.927C54.6791 133.327 56.814 133.424 58.753 133.189C60.3916 133.032 61.9885 132.581 63.4669 131.858C64.9359 131.136 66.0849 129.896 66.6912 128.376C66.965 127.565 67.0633 126.705 66.9797 125.854C66.8961 125.002 66.6325 124.177 66.2063 123.435C64.4944 120.218 60.9496 118.569 57.4458 118.283C55.6419 118.142 53.8278 118.36 52.1087 118.924C50.3895 119.488 48.7993 120.387 47.4301 121.57C44.7911 123.944 43.166 127.242 42.891 130.781C42.5852 134.449 44.0093 138.012 46.0856 140.973C48.2592 143.981 50.8531 146.663 53.788 148.935C59.5257 153.514 66.2561 156.687 73.4404 158.199C74.295 158.376 75.1541 158.527 76.0178 158.653C76.2927 158.719 76.5826 158.678 76.8285 158.539C77.0744 158.399 77.2578 158.171 77.3415 157.901C77.4152 157.626 77.3777 157.333 77.2371 157.086C77.0965 156.838 76.864 156.656 76.5899 156.578Z" fill="#3F3D56"/>
<path d="M179.133 109.835C169.749 109.702 160.395 109.94 151.07 110.549C147.883 110.757 145.125 111.883 145.125 113.775C145.125 115.358 147.861 117.211 151.07 117.002C160.39 116.394 169.744 116.156 179.133 116.288C186.787 116.396 186.782 109.943 179.133 109.835Z" fill="#CCCCCC"/>
<path d="M165.263 115.968C164.249 115.968 140.427 115.93 140.427 112.641C140.427 109.352 164.249 109.314 165.263 109.314C166.278 109.314 190.1 109.352 190.1 112.641C190.1 115.93 166.278 115.968 165.263 115.968ZM141.358 112.641C142.01 113.638 150.767 115.05 165.263 115.05C179.76 115.05 188.517 113.638 189.169 112.641C188.517 111.644 179.76 110.232 165.263 110.232C150.767 110.232 142.01 111.644 141.358 112.641Z" fill="#3F3D56"/>
<path d="M240.846 202.434C246.12 202.288 252.683 202.105 257.739 198.413C259.245 197.269 260.482 195.809 261.364 194.136C262.246 192.464 262.751 190.619 262.844 188.73C262.947 185.815 261.893 183.27 259.877 181.566C257.236 179.336 253.379 178.812 249.223 180.033L253.529 148.582L250.368 148.149L245.306 185.124L247.946 183.913C251.006 182.511 255.207 181.797 257.817 184.001C258.458 184.578 258.957 185.294 259.276 186.095C259.595 186.896 259.725 187.759 259.656 188.618C259.579 190.024 259.199 191.396 258.544 192.642C257.888 193.887 256.972 194.978 255.857 195.838C251.923 198.711 246.691 199.081 240.757 199.247L240.846 202.434Z" fill="#3F3D56"/>
<path d="M232.107 151.294H214.924V154.483H232.107V151.294Z" fill="#3F3D56"/>
<path d="M93.4079 138.904C92.6431 138.902 91.9041 138.627 91.3234 138.13C90.7427 137.632 90.3581 136.944 90.2387 136.189L89.1899 129.499C89.0589 128.657 89.2672 127.798 89.7691 127.11C90.271 126.422 91.0255 125.961 91.8671 125.828L147.655 117.091C148.497 116.96 149.356 117.168 150.044 117.67C150.733 118.172 151.194 118.926 151.327 119.767L152.376 126.458C152.507 127.299 152.298 128.158 151.796 128.846C151.295 129.534 150.54 129.995 149.699 130.128L93.9107 138.865C93.7443 138.891 93.5763 138.904 93.4079 138.904Z" fill="#2F2E41"/>
<path d="M70.3201 60.4985C83.2497 60.4985 93.7312 50.0218 93.7312 37.0983C93.7312 24.1747 83.2497 13.6981 70.3201 13.6981C57.3905 13.6981 46.9091 24.1747 46.9091 37.0983C46.9091 50.0218 57.3905 60.4985 70.3201 60.4985Z" fill="#6C63FF"/>
<path d="M83.5751 43.1529C84.3233 42.8914 85.0068 42.4727 85.5796 41.9251C85.9587 41.5346 86.2477 41.0661 86.4265 40.5522C86.6053 40.0384 86.6695 39.4917 86.6147 38.9505C86.5828 38.5647 86.4622 38.1915 86.2621 37.8601C86.0621 37.5286 85.7881 37.2479 85.4615 37.0399C84.6143 36.5191 83.4947 36.5387 82.3644 37.0625L82.234 27.9282L81.316 27.9413L81.4693 38.6796L82.1681 38.2215C82.9785 37.6911 84.1428 37.3065 84.9805 37.8216C85.1877 37.9579 85.3606 38.1402 85.4858 38.3542C85.6111 38.5682 85.6852 38.8083 85.7025 39.0556C85.7412 39.4588 85.6924 39.8656 85.5596 40.2483C85.4269 40.631 85.2132 40.9807 84.9331 41.2734C83.9379 42.2604 82.4649 42.5911 80.7837 42.8936L80.9464 43.7966C81.8401 43.661 82.7198 43.4455 83.5751 43.1529Z" fill="#2F2E41"/>
<path d="M91.6873 27.2872L86.7985 28.0272L86.9359 28.9344L91.8248 28.1944L91.6873 27.2872Z" fill="#2F2E41"/>
<path d="M76.2558 29.6225L71.3669 30.3625L71.5044 31.2697L76.3933 30.5297L76.2558 29.6225Z" fill="#2F2E41"/>
<path d="M85.7912 138.495C84.9492 138.493 84.1278 138.235 83.4362 137.755C82.7445 137.275 82.2155 136.596 81.9194 135.809L65.7781 92.6014C63.8053 87.3023 64.0159 81.4374 66.3639 76.2933C68.7119 71.1493 73.0055 67.1463 78.3027 65.1625L91.4274 60.264C91.9349 60.0733 92.4752 59.9848 93.017 60.0036C93.5589 60.0224 94.0917 60.1481 94.5847 60.3735C95.0766 60.5932 95.5197 60.9086 95.8882 61.3014C96.2567 61.6942 96.5432 62.1565 96.7309 62.6612L126.631 119.089C126.825 119.598 126.917 120.14 126.901 120.685C126.884 121.229 126.76 121.765 126.536 122.261C126.312 122.757 125.992 123.205 125.594 123.577C125.196 123.949 124.729 124.239 124.218 124.429L87.235 138.233C86.7733 138.406 86.2843 138.495 85.7912 138.495Z" fill="#2F2E41"/>
<path d="M87.4454 61.7501L117.113 101.404L97.0382 62.1663C96.8724 61.7085 96.618 61.2878 96.2895 60.9282C95.961 60.5687 95.5649 60.2774 95.1237 60.0709C94.6825 59.8644 94.205 59.7468 93.7184 59.7248C93.2318 59.7029 92.7456 59.7769 92.2876 59.9428L87.4454 61.7501Z" fill="#E6E6E6"/>
<path d="M134.42 91.8652L81.4488 88.4547C80.6139 88.4009 79.7977 88.1833 79.0469 87.8143C78.2961 87.4452 77.6253 86.932 77.073 86.3039C76.5206 85.6757 76.0974 84.945 75.8276 84.1534C75.5577 83.3618 75.4465 82.5248 75.5003 81.6903C75.5541 80.8557 75.7718 80.0399 76.141 79.2894C76.5102 78.539 77.0237 77.8685 77.6521 77.3164C78.2805 76.7643 79.0116 76.3413 79.8036 76.0716C80.5956 75.8019 81.4329 75.6907 82.2679 75.7445L135.239 79.1548C135.63 79.1799 136.012 79.2818 136.364 79.4546C136.716 79.6274 137.03 79.8677 137.288 80.1619C137.547 80.4561 137.745 80.7983 137.872 81.169C137.998 81.5397 138.05 81.9317 138.025 82.3225L137.589 89.0807C137.538 89.87 137.176 90.6068 136.582 91.129C135.987 91.6512 135.21 91.916 134.42 91.8652Z" fill="#6C63FF"/>
<path d="M120.265 94.0516C120.195 94.0516 120.125 94.0493 120.055 94.0448L76.5579 91.2444C76.1368 91.2173 75.7252 91.1076 75.3465 90.9215C74.9678 90.7354 74.6295 90.4766 74.3509 90.1598C74.0723 89.843 73.8589 89.4745 73.7228 89.0752C73.5867 88.676 73.5307 88.2539 73.5578 87.833L74.3016 76.2897C74.3287 75.8688 74.4386 75.4573 74.6248 75.0789C74.811 74.7004 75.07 74.3623 75.387 74.0838C75.7039 73.8054 76.0727 73.5921 76.4721 73.4561C76.8716 73.3201 77.2939 73.2641 77.715 73.2912L121.212 76.0914C122.062 76.1471 122.855 76.5375 123.418 77.1771C123.98 77.8166 124.266 78.653 124.212 79.5028L123.468 91.0463C123.427 91.6648 123.208 92.2584 122.838 92.7558C122.468 93.2531 121.962 93.6331 121.381 93.8501C121.024 93.9836 120.646 94.0518 120.265 94.0516Z" fill="#2F2E41"/>
<path d="M70.0518 21.5375C73.1316 18.89 77.3609 21.2584 80.8928 20.8438C84.2718 20.4471 86.94 17.4175 87.6217 14.1989C88.4169 10.4439 86.4669 6.68186 83.5928 4.34066C80.445 1.77647 76.2702 1.04035 72.314 1.51474C67.7798 2.05845 63.633 4.17105 59.9121 6.72635C56.3206 9.11643 53.0177 11.9139 50.0695 15.0628C47.4295 17.9772 45.1928 21.451 44.4785 25.3726C43.8295 28.9365 44.3251 32.8859 46.4329 35.905C47.5506 37.4525 49.0485 38.6859 50.7819 39.4863C52.5894 40.3734 54.5174 41.0076 56.2685 42.0106C58.9161 43.5272 61.4894 46.6718 60.66 49.9442C60.4822 50.659 60.1313 51.3192 59.6382 51.8666C59.0457 52.524 57.9771 51.6553 58.5711 50.9962C59.6144 49.8386 59.5733 48.2947 59.0173 46.9125C58.3561 45.3551 57.1854 44.0683 55.6968 43.2629C53.8639 42.2154 51.8402 41.5689 49.9616 40.6148C48.1634 39.7432 46.6025 38.4503 45.4118 36.846C43.1634 33.7228 42.4908 29.6581 43.0007 25.898C43.5526 21.8289 45.6442 18.1313 48.2662 15.0327C51.1197 11.6606 54.6248 8.80621 58.2056 6.24191C62.0478 3.49039 66.2927 1.16418 70.9899 0.322821C75.0617 -0.406502 79.4751 0.0425153 83.0357 2.26042C86.3593 4.33068 88.9079 7.89195 89.1614 11.8713C89.2524 13.6819 88.859 15.4841 88.0219 17.0923C87.1847 18.7005 85.9339 20.0567 84.3983 21.0213C82.8225 21.9638 80.9905 22.388 79.1606 22.2341C77.2043 22.1089 75.2462 21.5102 73.2775 21.6764C72.3866 21.7305 71.5376 22.0733 70.8592 22.653C70.1863 23.2315 69.3844 22.1113 70.0518 21.5375Z" fill="#2F2E41"/>
<path d="M339.453 274H0.546578C0.401893 274 0.263279 273.942 0.161119 273.839C0.0589589 273.737 0.00158691 273.598 0.00158691 273.454C0.00158691 273.309 0.0589589 273.17 0.161119 273.068C0.263279 272.966 0.401893 272.908 0.546578 272.907H339.453C339.598 272.907 339.737 272.965 339.84 273.067C339.942 273.17 340 273.309 340 273.454C340 273.599 339.942 273.738 339.84 273.84C339.737 273.942 339.598 274 339.453 274Z" fill="#3F3D56"/>
</g>
<defs>
<clipPath id="clip0_33_605">
<rect width="340" height="274" fill="white"/>
</clipPath>
</defs>
</svg>
