<svg width="101" height="101" viewBox="0 0 101 101" fill="none" xmlns="http://www.w3.org/2000/svg">
<g filter="url(#filter0_d_24_865)">
<circle cx="50.5" cy="50.5" r="36.5" fill="#233DFF"/>
</g>
<path fill-rule="evenodd" clip-rule="evenodd" d="M48.625 48.625V37.375C48.625 36.3395 49.4645 35.5 50.5 35.5C51.5355 35.5 52.375 36.3395 52.375 37.375V48.625H63.625C64.6605 48.625 65.5 49.4645 65.5 50.5C65.5 51.5355 64.6605 52.375 63.625 52.375H52.375V63.625C52.375 64.6605 51.5355 65.5 50.5 65.5C49.4645 65.5 48.625 64.6605 48.625 63.625V52.375H37.375C36.3395 52.375 35.5 51.5355 35.5 50.5C35.5 49.4645 36.3395 48.625 37.375 48.625H48.625Z" fill="white"/>
<mask id="mask0_24_865" style="mask-type:luminance" maskUnits="userSpaceOnUse" x="35" y="35" width="31" height="31">
<path fill-rule="evenodd" clip-rule="evenodd" d="M48.625 48.625V37.375C48.625 36.3395 49.4645 35.5 50.5 35.5C51.5355 35.5 52.375 36.3395 52.375 37.375V48.625H63.625C64.6605 48.625 65.5 49.4645 65.5 50.5C65.5 51.5355 64.6605 52.375 63.625 52.375H52.375V63.625C52.375 64.6605 51.5355 65.5 50.5 65.5C49.4645 65.5 48.625 64.6605 48.625 63.625V52.375H37.375C36.3395 52.375 35.5 51.5355 35.5 50.5C35.5 49.4645 36.3395 48.625 37.375 48.625H48.625Z" fill="white"/>
</mask>
<g mask="url(#mask0_24_865)">
<rect x="28" y="28" width="45" height="45" fill="white"/>
</g>
<defs>
<filter id="filter0_d_24_865" x="0" y="0" width="101" height="101" filterUnits="userSpaceOnUse" color-interpolation-filters="sRGB">
<feFlood flood-opacity="0" result="BackgroundImageFix"/>
<feColorMatrix in="SourceAlpha" type="matrix" values="0 0 0 0 0 0 0 0 0 0 0 0 0 0 0 0 0 0 127 0" result="hardAlpha"/>
<feMorphology radius="10" operator="dilate" in="SourceAlpha" result="effect1_dropShadow_24_865"/>
<feOffset/>
<feGaussianBlur stdDeviation="2"/>
<feComposite in2="hardAlpha" operator="out"/>
<feColorMatrix type="matrix" values="0 0 0 0 0.137255 0 0 0 0 0.239216 0 0 0 0 1 0 0 0 0.5 0"/>
<feBlend mode="normal" in2="BackgroundImageFix" result="effect1_dropShadow_24_865"/>
<feBlend mode="normal" in="SourceGraphic" in2="effect1_dropShadow_24_865" result="shape"/>
</filter>
</defs>
</svg>
