<svg width="178" height="34" viewBox="0 0 178 34" fill="none" xmlns="http://www.w3.org/2000/svg">
<g id="logo 2">
<g id="Group">
<path id="Vector" d="M50.7865 5.90463L43.394 15.0651L51.3403 24.6527H44.4882L40.0714 18.8414L35.8148 24.6527H29.1696L36.8222 15.0785L29.1696 5.89795H36.0483L40.0848 11.3155L43.9144 5.89795H50.7865V5.90463Z" fill="#233DFF"/>
<path id="Vector_2" d="M59.6868 5.90459V7.53253C61.2613 6.1848 63.0494 5.50427 65.051 5.50427C67.4862 5.50427 69.5478 6.42499 71.2292 8.26644C72.9105 10.1079 73.7511 12.3697 73.7511 15.0451C73.7511 18.0541 72.9038 20.4693 71.2158 22.2841C69.5278 24.0989 67.2927 25.0062 64.5106 25.0062C62.7892 25.0062 61.1813 24.5792 59.6868 23.7119V34H53.7888V5.89124H59.6868V5.90459ZM59.6868 11.2087V19.8288C60.801 20.6495 61.9352 21.0631 63.1028 21.0631C64.5306 21.0631 65.6715 20.5494 66.5121 19.5219C67.3528 18.4945 67.7731 17.1067 67.7731 15.3587C67.7731 13.6106 67.3861 12.1828 66.6122 11.1887C65.8383 10.1946 64.7507 9.70089 63.343 9.70089C62.162 9.70089 60.9478 10.2013 59.6868 11.2087Z" fill="#233DFF"/>
<path id="Vector_3" d="M95.9152 18.8347V22.551C93.6668 24.1923 90.8779 25.0129 87.5553 25.0129C84.2327 25.0129 81.624 24.1255 79.6491 22.3575C77.6742 20.5894 76.6868 18.2476 76.6868 15.3253C76.6868 12.403 77.6142 10.1079 79.469 8.26644C81.3237 6.42499 83.6856 5.50427 86.5612 5.50427C89.4368 5.50427 91.812 6.4717 93.6601 8.41322C95.5082 10.3547 96.3689 12.9501 96.2554 16.2127H82.7849C82.905 17.914 83.5055 19.2217 84.593 20.1424C85.6805 21.0565 87.135 21.5168 88.9631 21.5168C91.1715 21.5168 93.4933 20.6228 95.9152 18.8347ZM82.905 13.1169H91.0514C90.7311 10.3881 89.3767 9.02703 86.9815 9.02703C84.5863 9.02703 83.1985 10.3881 82.9117 13.1169H82.905Z" fill="#233DFF"/>
<path id="Vector_4" d="M105.97 5.90464V8.56672C107.704 6.52512 109.739 5.51099 112.068 5.51099C114.016 5.51099 115.637 6.13147 116.945 7.37912C118.246 8.62677 118.9 10.4082 118.9 12.73V24.6593H113.002V13.2237C113.002 10.7151 112.028 9.46743 110.08 9.46743C108.692 9.46743 107.317 10.5016 105.97 12.5632V24.6593H100.072V5.9113H105.97V5.90464Z" fill="#233DFF"/>
<path id="Vector_5" d="M137.254 5.90463V9.93446H130.422V17.6605C130.422 18.5879 130.676 19.3218 131.19 19.8556C131.697 20.3893 132.404 20.6629 133.305 20.6629C134.526 20.6629 135.84 20.2959 137.254 19.5687V23.8387C135.373 24.6193 133.551 25.013 131.79 25.013C129.488 25.013 127.7 24.4191 126.426 23.2249C125.151 22.0306 124.518 20.2826 124.518 17.9808V9.93446H121.836V8.78022L129.682 0H130.416V5.89796H137.248L137.254 5.90463Z" fill="#233DFF"/>
<path id="Vector_6" d="M146.348 5.90464V11.2688H146.428C148.136 7.42582 150.131 5.51099 152.406 5.51099C153.494 5.51099 154.795 6.07811 156.323 7.219L154.695 12.4431C153.24 11.5157 152.073 11.0553 151.199 11.0553C149.838 11.0553 148.683 11.9027 147.749 13.5907C146.815 15.2786 146.348 16.2661 146.348 16.5463V24.6593H140.45V5.9113H146.348V5.90464Z" fill="#233DFF"/>
<path id="Vector_7" d="M177.673 20.029V23.3049C175.711 24.4458 173.87 25.013 172.148 25.013C170.293 25.013 169.193 24.3124 168.852 22.9046C166.797 24.3057 164.742 25.013 162.674 25.013C161.22 25.013 159.979 24.5526 158.958 23.6319C157.937 22.7111 157.43 21.637 157.43 20.416C157.43 18.7881 157.957 17.467 159.011 16.4662C160.065 15.4655 163.255 14.1778 168.579 12.5965C168.712 10.5016 167.625 9.46075 165.323 9.46075C162.821 9.46075 160.519 10.5082 158.411 12.5965V7.79277C160.873 6.27158 163.582 5.51099 166.537 5.51099C171.835 5.51099 174.483 7.41249 174.483 11.2221V19.7755C174.483 20.6495 174.81 21.0899 175.458 21.0899C175.945 21.0899 176.692 20.7363 177.679 20.0357L177.673 20.029ZM168.572 20.1024V15.5589C166.597 16.2528 165.243 16.8732 164.509 17.4203C163.775 17.9741 163.408 18.6746 163.408 19.522C163.408 20.0691 163.595 20.5361 163.962 20.9297C164.335 21.3234 164.782 21.5169 165.31 21.5169C166.424 21.5169 167.505 21.0432 168.565 20.1024H168.572Z" fill="#233DFF"/>
</g>
<g id="Group_2">
<path id="Vector_8" d="M26.0471 13.6241C26.0471 11.022 25.4933 8.74023 24.3925 6.79203C23.2916 4.83717 21.7637 3.32932 19.8089 2.28183C19.5153 2.12171 19.2284 1.9816 18.9282 1.84816L13.5173 7.0856C14.6915 7.17233 15.6856 7.57265 16.5063 8.27987C17.4403 9.08717 17.9074 10.168 17.9074 11.5358H7.9529C8.1664 10.108 8.73352 9.0071 9.65424 8.23316C10.0946 7.86621 10.5816 7.57933 11.1154 7.38584L7.62598 1.6947C7.16562 1.88152 6.71193 2.08835 6.27826 2.32854C4.2967 3.41606 2.74882 4.96394 1.65463 6.97885C0.55377 8.99377 0 11.3489 0 14.0511C0 16.7532 0.560441 19.1017 1.67465 21.1233C2.79553 23.1382 4.34341 24.6861 6.32496 25.7736C8.30652 26.8611 10.5683 27.4015 13.117 27.4015C15.2253 27.4015 17.1334 27.0146 18.8414 26.234C20.5428 25.46 21.9639 24.3925 23.0981 23.0248C24.2323 21.6637 25.0063 20.1225 25.4466 18.4212H16.98C16.206 20.0958 14.825 20.9365 12.8367 20.9365C11.5024 20.9365 10.3815 20.5095 9.46075 19.6555C8.5467 18.8015 8.02629 17.5672 7.89953 15.9592H25.907C26.0004 15.1519 26.0471 14.378 26.0471 13.6307V13.6241Z" fill="#233DFF"/>
<path id="Vector_9" d="M17.9007 1.44779C17.7672 1.41443 17.6271 1.38107 17.4937 1.34771C17.1001 1.25431 16.7131 1.16757 16.3261 1.09418C15.1785 0.867332 14.0377 0.720553 12.9101 0.700537C11.449 0.667177 10.0212 0.853988 8.63342 1.33437C8.62007 1.33437 8.60673 1.34104 8.59338 1.34771L12.1028 7.0722L17.9074 1.44779H17.9007Z" fill="#F15A29"/>
</g>
</g>
</svg>
