<svg width="73" height="72" viewBox="0 0 73 72" fill="none" xmlns="http://www.w3.org/2000/svg">
<rect width="73" height="72" rx="10" fill="#233DFF" fill-opacity="0.2"/>
<path d="M53.363 25.4855L53.3855 25.463L45.0436 17.1212L42.6667 19.4982L47.3982 24.2297C45.2903 25.037 43.7879 27.0552 43.7879 29.4545C43.7879 30.1907 43.9329 30.9197 44.2146 31.5999C44.4963 32.2801 44.9093 32.8981 45.4299 33.4186C46.4812 34.47 47.9071 35.0606 49.3939 35.0606C50.2012 35.0606 50.9412 34.8812 51.6364 34.5897V50.7576C51.6364 51.3523 51.4001 51.9227 50.9796 52.3432C50.559 52.7637 49.9887 53 49.3939 53C48.7992 53 48.2288 52.7637 47.8083 52.3432C47.3878 51.9227 47.1515 51.3523 47.1515 50.7576V40.6667C47.1515 39.4772 46.679 38.3365 45.8379 37.4954C44.9969 36.6543 43.8561 36.1818 42.6667 36.1818H40.4242V20.4848C40.4242 19.2954 39.9517 18.1547 39.1107 17.3136C38.2696 16.4725 37.1288 16 35.9394 16H22.4848C21.2954 16 20.1547 16.4725 19.3136 17.3136C18.4725 18.1547 18 19.2954 18 20.4848V56.3636H40.4242V39.5455H43.7879V50.7576C43.7879 52.2444 44.3785 53.6703 45.4299 54.7217C46.4812 55.773 47.9071 56.3636 49.3939 56.3636C50.1301 56.3636 50.8591 56.2186 51.5393 55.9369C52.2194 55.6552 52.8375 55.2422 53.358 54.7217C53.8786 54.2011 54.2915 53.5831 54.5733 52.9029C54.855 52.2228 55 51.4938 55 50.7576V29.4545C55 27.9073 54.3721 26.4945 53.363 25.4855ZM35.9394 39.5455V51.8788H22.4848V36.1818H35.9394V39.5455ZM35.9394 31.697H22.4848V20.4848H35.9394V31.697ZM49.3939 31.697C48.7992 31.697 48.2288 31.4607 47.8083 31.0402C47.3878 30.6196 47.1515 30.0493 47.1515 29.4545C47.1515 28.8598 47.3878 28.2894 47.8083 27.8689C48.2288 27.4484 48.7992 27.2121 49.3939 27.2121C49.9887 27.2121 50.559 27.4484 50.9796 27.8689C51.4001 28.2894 51.6364 28.8598 51.6364 29.4545C51.6364 30.0493 51.4001 30.6196 50.9796 31.0402C50.559 31.4607 49.9887 31.697 49.3939 31.697Z" fill="#233DFF"/>
</svg>
