<svg width="66" height="61" viewBox="0 0 66 61" fill="none" xmlns="http://www.w3.org/2000/svg">
<path d="M17.7829 30.1556H16.9056L33.0112 46.2612L46.2377 33.0348H50.309L33.0112 50.3326L13.554 30.8979C13.0292 30.373 12.5643 29.8107 12.1594 29.2109C11.7545 28.611 11.4021 27.9662 11.1022 27.2764H16.5682L22.934 20.9331L33.0112 30.9879L40.2093 23.8123L43.6958 27.2764H51.6812C52.161 26.5116 52.5284 25.7018 52.7834 24.847C53.0383 23.9923 53.1658 23.115 53.1658 22.2153C53.1658 20.9106 52.9258 19.6959 52.446 18.5712C51.9661 17.4465 51.2988 16.4718 50.444 15.647C49.5892 14.8223 48.5995 14.1699 47.4748 13.6901C46.3501 13.2102 45.128 12.9703 43.8083 12.9703C42.5487 12.9703 41.4315 13.1652 40.4567 13.5551C39.482 13.945 38.5822 14.4699 37.7575 15.1297C36.9327 15.7895 36.1454 16.5168 35.3956 17.3116C34.6458 18.1064 33.851 18.9386 33.0112 19.8084C32.2015 18.9986 31.4142 18.1813 30.6494 17.3566C29.8846 16.5318 29.0898 15.7895 28.265 15.1297C27.4403 14.4699 26.533 13.93 25.5433 13.5101C24.5535 13.0902 23.4438 12.8803 22.2142 12.8803C20.9245 12.8803 19.7174 13.1202 18.5927 13.6001C17.468 14.08 16.4782 14.7473 15.6235 15.602C14.7687 16.4568 14.1014 17.4465 13.6215 18.5712C13.1416 19.6959 12.8942 20.9106 12.8792 22.2153C12.8792 22.9201 12.9617 23.6474 13.1267 24.3972H10.18C10.105 24.0373 10.06 23.6774 10.045 23.3175C10.03 22.9576 10.015 22.5976 10 22.2377C10 20.5432 10.3149 18.9536 10.9447 17.469C11.5746 15.9844 12.4443 14.6873 13.554 13.5776C14.6637 12.4679 15.9609 11.5981 17.4455 10.9683C18.9301 10.3385 20.5196 10.0161 22.2142 10.0011C23.4588 10.0011 24.5685 10.1435 25.5433 10.4285C26.518 10.7134 27.4178 11.1033 28.2425 11.5981C29.0673 12.093 29.8621 12.7003 30.6269 13.4201C31.3917 14.1399 32.1865 14.9122 33.0112 15.737C33.836 14.8972 34.6233 14.125 35.3731 13.4201C36.1229 12.7153 36.9177 12.1155 37.7575 11.6206C38.5972 11.1258 39.5045 10.7284 40.4792 10.4285C41.454 10.1285 42.5637 9.98608 43.8083 10.0011C45.4879 10.0011 47.0699 10.316 48.5545 10.9458C50.0391 11.5756 51.3288 12.4454 52.4235 13.5551C53.5182 14.6648 54.3879 15.9545 55.0328 17.4241C55.6776 18.8937 56 20.4757 56 22.1703C56 23.6249 55.7451 25.0345 55.2352 26.3991C54.7253 27.7637 53.998 29.0159 53.0533 30.1556H42.4812L40.2093 27.8612L33.0112 35.0818L22.934 24.982L17.7829 30.1556Z" fill="#CA63FF"/>
</svg>
