<svg width="28" height="25" viewBox="0 0 28 25" fill="none" xmlns="http://www.w3.org/2000/svg">
<path d="M22.8745 13.7631C22.8745 14.09 22.7447 14.4035 22.5135 14.6346C22.2824 14.8658 21.9689 14.9956 21.642 14.9956C21.3151 14.9956 21.0016 14.8658 20.7704 14.6346C20.5393 14.4035 20.4094 14.09 20.4094 13.7631C20.4094 13.4362 20.5393 13.1227 20.7704 12.8915C21.0016 12.6604 21.3151 12.5305 21.642 12.5305C21.9689 12.5305 22.2824 12.6604 22.5135 12.8915C22.7447 13.1227 22.8745 13.4362 22.8745 13.7631Z" stroke="#233DFF" stroke-width="1.98799" stroke-linecap="round" stroke-linejoin="round"/>
<path d="M26.8439 16.9147C26.7507 16.9229 26.6572 16.9269 26.5636 16.9267H21.1079C20.7058 16.9275 20.3076 16.8492 19.9358 16.6962C19.564 16.5431 19.226 16.3183 18.9411 16.0347C18.6562 15.751 18.43 15.414 18.2753 15.0429C18.1207 14.6718 18.0406 14.2738 18.0397 13.8718V13.5139C18.0389 13.1119 18.1172 12.7136 18.2702 12.3418C18.4233 11.9701 18.6481 11.6321 18.9317 11.3472C19.2154 11.0623 19.5524 10.836 19.9235 10.6814C20.2946 10.5267 20.6926 10.4467 21.0946 10.4458H26.5636C26.6584 10.4458 26.7518 10.4504 26.8439 10.4591" stroke="#233DFF" stroke-width="1.98799" stroke-linecap="round" stroke-linejoin="round"/>
<path d="M1.38435 4.71581H26.0772C26.5013 4.71581 26.8439 5.0584 26.8439 5.48317V23.2333C26.8439 23.6574 26.502 24 26.0772 24H1.7667C1.66619 24.0002 1.56663 23.9805 1.4737 23.9422C1.38078 23.9039 1.29631 23.8477 1.22511 23.7768C1.15392 23.7058 1.09739 23.6215 1.05877 23.5287C1.02014 23.436 1.00017 23.3365 1 23.2359V5.41492C1 4.60116 2.23653 4.16712 3.20667 4.00212L20.5884 1.04332C22.2636 0.758374 23.6857 1.91141 24.127 3.55283L24.4252 4.66345" stroke="#233DFF" stroke-width="1.98799" stroke-linecap="round" stroke-linejoin="round"/>
</svg>
