<svg width="73" height="72" viewBox="0 0 73 72" fill="none" xmlns="http://www.w3.org/2000/svg">
<rect width="73" height="72" rx="10" fill="#F0914D" fill-opacity="0.2"/>
<path d="M29.4 47.4C27.31 47.4 25.619 49.11 25.619 51.2C25.619 53.29 27.31 55 29.4 55C31.49 55 33.2 53.29 33.2 51.2C33.2 49.11 31.49 47.4 29.4 47.4ZM48.4 47.4C46.31 47.4 44.619 49.11 44.619 51.2C44.619 53.29 46.31 55 48.4 55C50.49 55 52.2 53.29 52.2 51.2C52.2 49.11 50.49 47.4 48.4 47.4ZM45.645 37.9C47.07 37.9 48.324 37.121 48.97 35.943L55.772 23.612C55.9321 23.324 56.0143 22.9992 56.0103 22.6697C56.0064 22.3402 55.9165 22.0175 55.7495 21.7334C55.5825 21.4493 55.3442 21.2138 55.0582 21.0501C54.7723 20.8864 54.4485 20.8002 54.119 20.8H25.999L24.213 17H18V20.8H21.8L28.64 35.221L26.075 39.857C24.688 42.403 26.512 45.5 29.4 45.5H52.2V41.7H29.4L31.49 37.9H45.645ZM27.804 24.6H50.889L45.645 34.1H32.307L27.804 24.6Z" fill="#F0914D"/>
</svg>
