<svg width="22" height="24" viewBox="0 0 22 24" fill="none" xmlns="http://www.w3.org/2000/svg">
<path d="M9.28086 0.603409C9.76842 0.212827 10.3745 0 10.9992 0C11.6239 0 12.23 0.212827 12.7176 0.603409L20.9676 7.20341C21.6197 7.72512 22 8.51555 22 9.35155V20.3814C22 21.1108 21.7103 21.8102 21.1945 22.326C20.6788 22.8417 19.9793 23.1314 19.25 23.1314H13.75C13.4374 23.1314 13.1376 23.0072 12.9166 22.7862C12.6956 22.5652 12.5714 22.2654 12.5714 21.9528V13.7028H9.42857V21.9528C9.42857 22.2654 9.3044 22.5652 9.08338 22.7862C8.86235 23.0072 8.56258 23.1314 8.25 23.1314H2.75C2.02065 23.1314 1.32118 22.8417 0.805456 22.326C0.289731 21.8102 0 21.1108 0 20.3814V9.34998C0 8.51555 0.380286 7.72512 1.03243 7.20341L9.28086 0.603409ZM11.2451 2.44355C11.1755 2.38796 11.0891 2.35768 11 2.35768C10.9109 2.35768 10.8245 2.38796 10.7549 2.44355L2.50486 9.04355C2.45864 9.08046 2.42135 9.12733 2.39577 9.18066C2.3702 9.23399 2.35699 9.29241 2.35714 9.35155V20.3814C2.35714 20.5983 2.53314 20.7743 2.75 20.7743H7.07143V12.5243C7.07143 12.2117 7.1956 11.9119 7.41662 11.6909C7.63765 11.4699 7.93742 11.3457 8.25 11.3457H13.75C14.0626 11.3457 14.3624 11.4699 14.5834 11.6909C14.8044 11.9119 14.9286 12.2117 14.9286 12.5243V20.7743H19.25C19.3542 20.7743 19.4541 20.7329 19.5278 20.6592C19.6015 20.5855 19.6429 20.4856 19.6429 20.3814V9.34998C19.6428 9.2911 19.6295 9.23299 19.6039 9.17995C19.5783 9.12691 19.5412 9.08029 19.4951 9.04355L11.2451 2.44355Z" fill="#233DFF"/>
</svg>
