<svg width="18" height="30" viewBox="0 0 18 30" fill="none" xmlns="http://www.w3.org/2000/svg">
<path id="income" fill-rule="evenodd" clip-rule="evenodd" d="M7.5 25.5V30H10.5V25.5H12C13.5913 25.5 15.1174 24.8679 16.2426 23.7426C17.3679 22.6174 18 21.0913 18 19.5C18 17.9087 17.3679 16.3826 16.2426 15.2574C15.1174 14.1321 13.5913 13.5 12 13.5H10.5V7.5H13.5V10.5H16.5V4.5H10.5V0H7.5V4.5H6C4.4087 4.5 2.88258 5.13214 1.75736 6.25736C0.632141 7.38258 0 8.9087 0 10.5C0 12.0913 0.632141 13.6174 1.75736 14.7426C2.88258 15.8679 4.4087 16.5 6 16.5H7.5V22.5H4.5V19.5H1.5V25.5H7.5ZM10.5 22.5H12C12.7956 22.5 13.5587 22.1839 14.1213 21.6213C14.6839 21.0587 15 20.2956 15 19.5C15 18.7044 14.6839 17.9413 14.1213 17.3787C13.5587 16.8161 12.7956 16.5 12 16.5H10.5V22.5ZM7.5 13.5V7.5H6C5.20435 7.5 4.44129 7.81607 3.87868 8.37868C3.31607 8.94129 3 9.70435 3 10.5C3 11.2956 3.31607 12.0587 3.87868 12.6213C4.44129 13.1839 5.20435 13.5 6 13.5H7.5Z" fill="#233DFF"/>
</svg>
