<svg width="31" height="28" viewBox="0 0 31 28" fill="none" xmlns="http://www.w3.org/2000/svg">
<g id="logout">
<path id="Vector" d="M12.5 8V5C12.5 4.20435 12.8161 3.44129 13.3787 2.87868C13.9413 2.31607 14.7044 2 15.5 2H26C26.7956 2 27.5587 2.31607 28.1213 2.87868C28.6839 3.44129 29 4.20435 29 5V23C29 23.7956 28.6839 24.5587 28.1213 25.1213C27.5587 25.6839 26.7956 26 26 26H15.5C14.7044 26 13.9413 25.6839 13.3787 25.1213C12.8161 24.5587 12.5 23.7956 12.5 23V20" stroke="#233DFF" stroke-width="3.4" stroke-linecap="round" stroke-linejoin="round"/>
<path id="Vector_2" d="M20 14H2M2 14L6.5 9.5M2 14L6.5 18.5" stroke="#233DFF" stroke-width="3.4" stroke-linecap="round" stroke-linejoin="round"/>
</g>
</svg>
