<svg width="41" height="22" viewBox="0 0 41 22" fill="none" xmlns="http://www.w3.org/2000/svg">
<path id="password" d="M21.8767 12.8547C21.4092 15.5706 19.9406 18.0125 17.7607 19.6984C15.5808 21.3844 12.8481 22.1918 10.102 21.9614C7.35583 21.731 4.79588 20.4794 2.92744 18.4537C1.05901 16.4281 0.0178818 13.7755 0.00958711 11.0198C0.00706683 8.25745 1.04301 5.59511 2.91189 3.56098C4.78077 1.52685 7.34601 0.269565 10.0986 0.0385806C12.8513 -0.192404 15.5902 0.619791 17.7719 2.31402C19.9537 4.00825 21.4188 6.46071 21.8767 9.18481H40.3785V12.8547H36.7086V20.1945H33.0387V12.8547H29.3688V20.1945H25.6989V12.8547H21.8767ZM11.0193 18.3596C12.9659 18.3596 14.8328 17.5863 16.2093 16.2098C17.5858 14.8333 18.3591 12.9664 18.3591 11.0198C18.3591 9.07313 17.5858 7.20622 16.2093 5.82974C14.8328 4.45326 12.9659 3.67997 11.0193 3.67997C9.07265 3.67997 7.20574 4.45326 5.82926 5.82974C4.45278 7.20622 3.67949 9.07313 3.67949 11.0198C3.67949 12.9664 4.45278 14.8333 5.82926 16.2098C7.20574 17.5863 9.07265 18.3596 11.0193 18.3596Z" fill="#233DFF"/>
</svg>
