<svg width="28" height="30" viewBox="0 0 28 30" fill="none" xmlns="http://www.w3.org/2000/svg">
<path id="settings" d="M27.6303 18.5473L25.468 16.6986C25.5704 16.0714 25.6232 15.431 25.6232 14.7906C25.6232 14.1502 25.5704 13.5098 25.468 12.8826L27.6303 11.0339C27.7934 10.8943 27.9101 10.7084 27.9649 10.5008C28.0198 10.2933 28.0101 10.0739 27.9373 9.87196L27.9076 9.78613C27.3123 8.12246 26.421 6.58021 25.2766 5.2339L25.2172 5.16458C25.0783 5.00135 24.8933 4.88401 24.6865 4.82803C24.4796 4.77204 24.2607 4.78004 24.0585 4.85098L21.3747 5.805C20.3843 4.99292 19.2785 4.35251 18.0835 3.90356L17.5652 1.09762C17.5261 0.886486 17.4237 0.69225 17.2715 0.540714C17.1194 0.389178 16.9248 0.287516 16.7135 0.249234L16.6244 0.232728C14.9045 -0.077576 13.0955 -0.077576 11.3756 0.232728L11.2865 0.249234C11.0752 0.287516 10.8806 0.389178 10.7284 0.540714C10.5763 0.69225 10.4739 0.886486 10.4348 1.09762L9.91323 3.91676C8.72777 4.36581 7.6238 5.00588 6.64513 5.8116L3.94153 4.85098C3.73939 4.77948 3.52028 4.77119 3.31331 4.82721C3.10635 4.88322 2.92133 5.00089 2.78284 5.16458L2.72342 5.2339C1.5804 6.58117 0.689198 8.12316 0.0924377 9.78613L0.0627277 9.87196C-0.0858221 10.2846 0.0363189 10.7468 0.369731 11.0339L2.55836 12.9024C2.45603 13.523 2.40651 14.1568 2.40651 14.7873C2.40651 15.4211 2.45603 16.0549 2.55836 16.6722L0.369731 18.5407C0.206642 18.6803 0.0899171 18.8662 0.0350776 19.0738C-0.019762 19.2814 -0.0101179 19.5007 0.0627277 19.7027L0.0924377 19.7885C0.689938 21.4522 1.57463 22.9873 2.72342 24.3407L2.78284 24.41C2.92167 24.5733 3.10669 24.6906 3.31353 24.7466C3.52037 24.8026 3.73932 24.7946 3.94153 24.7236L6.64513 23.763C7.62886 24.5718 8.72813 25.2122 9.91323 25.6579L10.4348 28.477C10.4739 28.6881 10.5763 28.8824 10.7284 29.0339C10.8806 29.1854 11.0752 29.2871 11.2865 29.3254L11.3756 29.3419C13.1113 29.6539 14.8887 29.6539 16.6244 29.3419L16.7135 29.3254C16.9248 29.2871 17.1194 29.1854 17.2715 29.0339C17.4237 28.8824 17.5261 28.6881 17.5652 28.477L18.0835 25.6711C19.278 25.2233 20.3901 24.5808 21.3747 23.7696L24.0585 24.7236C24.2606 24.7951 24.4797 24.8034 24.6867 24.7474C24.8937 24.6914 25.0787 24.5737 25.2172 24.41L25.2766 24.3407C26.4254 22.984 27.3101 21.4522 27.9076 19.7885L27.9373 19.7027C28.0858 19.2966 27.9637 18.8345 27.6303 18.5473ZM23.1243 13.2721C23.2068 13.7706 23.2497 14.2822 23.2497 14.7939C23.2497 15.3056 23.2068 15.8173 23.1243 16.3157L22.9064 17.6395L25.3723 19.7489C24.9985 20.6101 24.5266 21.4254 23.966 22.1785L20.9026 21.0924L19.8661 21.9441C19.0771 22.5911 18.199 23.0995 17.2483 23.456L15.9906 23.9281L15.3997 27.1301C14.4673 27.2358 13.5261 27.2358 12.5937 27.1301L12.0028 23.9215L10.755 23.4428C9.8142 23.0863 8.9394 22.5779 8.15704 21.9342L7.12049 21.0792L4.03726 22.1752C3.47607 21.4192 3.00731 20.6039 2.63099 19.7456L5.12332 17.6164L4.90875 16.2959C4.82953 15.804 4.78661 15.2957 4.78661 14.7939C4.78661 14.2888 4.82623 13.7838 4.90875 13.2919L5.12332 11.9715L2.63099 9.84225C3.00401 8.98066 3.47607 8.16859 4.03726 7.41263L7.12049 8.5086L8.15704 7.65362C8.9394 7.0099 9.8142 6.50153 10.755 6.14501L12.0061 5.67295L12.597 2.46428C13.5246 2.35864 14.4721 2.35864 15.403 2.46428L15.9939 5.66635L17.2516 6.13841C18.199 6.49493 19.0804 7.0033 19.8694 7.65031L20.9059 8.502L23.9693 7.41594C24.5305 8.17189 24.9993 8.98726 25.3756 9.84555L22.9097 11.955L23.1243 13.2721ZM14.0033 8.65385C10.7946 8.65385 8.19335 11.2551 8.19335 14.4638C8.19335 17.6725 10.7946 20.2737 14.0033 20.2737C17.212 20.2737 19.8132 17.6725 19.8132 14.4638C19.8132 11.2551 17.212 8.65385 14.0033 8.65385ZM16.6178 17.0783C16.2749 17.4222 15.8673 17.6949 15.4186 17.8807C14.97 18.0665 14.4889 18.1618 14.0033 18.161C13.0163 18.161 12.0887 17.7748 11.3888 17.0783C11.0449 16.7354 10.7722 16.3278 10.5864 15.8791C10.4006 15.4305 10.3053 14.9494 10.3061 14.4638C10.3061 13.4768 10.6923 12.5492 11.3888 11.8493C12.0887 11.1495 13.0163 10.7666 14.0033 10.7666C14.9903 10.7666 15.9179 11.1495 16.6178 11.8493C16.9617 12.1922 17.2344 12.5998 17.4202 13.0485C17.606 13.4971 17.7013 13.9782 17.7005 14.4638C17.7005 15.4508 17.3143 16.3784 16.6178 17.0783Z" fill="#233DFF"/>
</svg>
