<svg width="126" height="130" viewBox="0 0 126 130" fill="none" xmlns="http://www.w3.org/2000/svg">
<path d="M126 62.5518C126 49.9499 123.319 38.9375 118.015 29.4955C112.692 20.0346 105.3 12.7624 95.8513 7.66611C94.4448 6.90293 93.0383 6.20913 91.5876 5.58471L65.4062 30.9209C71.0954 31.3372 75.9078 33.2672 79.8624 36.6921C84.3784 40.5963 86.6238 45.8376 86.6238 52.435H38.4679C39.5086 45.5412 42.2523 40.2115 46.6863 36.4587C48.8055 34.6738 51.1707 33.2862 53.763 32.359L36.8785 4.82153C34.6457 5.71716 32.4634 6.73894 30.3631 7.88055C20.7698 13.1408 13.2957 20.6338 7.98498 30.3911C2.66166 40.1485 0 51.5457 0 64.5891C0 77.6325 2.6932 89.0297 8.0859 98.787C13.4912 108.544 20.9842 116.037 30.5965 121.279C40.1898 126.539 51.1392 129.169 63.4383 129.169C73.6435 129.169 82.871 127.283 91.1209 123.53C99.3582 119.79 106.22 114.618 111.708 108.021C117.182 101.423 120.954 93.9998 123.067 85.7436H82.1204C78.3676 93.8484 71.6819 97.8977 62.0949 97.8977C55.6426 97.8977 50.2057 95.8289 45.7717 91.6976C41.3567 87.579 38.8401 81.6123 38.2283 73.8229H125.319C125.767 69.9187 126 66.1659 126 62.5581V62.5518Z" fill="#233DFF"/>
<path d="M86.5923 3.62944C85.9364 3.46545 85.2867 3.30777 84.6308 3.15639C82.7386 2.70858 80.8527 2.286 78.9732 1.92017C73.4102 0.822712 67.8976 0.116297 62.4608 0.0153812C55.403 -0.129686 48.4839 0.740716 41.7604 3.08071C41.691 3.09963 41.6216 3.12486 41.5522 3.15009L58.5188 30.8263L86.6049 3.62944H86.5923Z" fill="#F15A29"/>
</svg>
